<svg width="0" height="0" class="hidden">
  <symbol fill="none" xmlns="http://www.w3.org/2000/svg" viewBox="0 0 48 13" id="Pikadu">
    <path d="M0.992188 0.726562H5.375C6.5 0.726562 7.41406 1.07552 8.11719 1.77344C8.82031 2.46615 9.17188 3.375 9.17188 4.5C9.17188 5.61979 8.8099 6.52865 8.08594 7.22656C7.36719 7.92448 6.4349 8.27344 5.28906 8.27344H3.00781V12H0.992188V0.726562ZM3.00781 2.375V6.64844H4.83594C5.5599 6.64844 6.1224 6.46094 6.52344 6.08594C6.92448 5.71094 7.125 5.18229 7.125 4.5C7.125 3.82292 6.92448 3.29948 6.52344 2.92969C6.1276 2.5599 5.56771 2.375 4.84375 2.375H3.00781Z" fill="white"></path>
    <path d="M10.5 12V3.71875H12.4453V12H10.5ZM12.2344 2.32812C12.026 2.53125 11.7708 2.63281 11.4688 2.63281C11.1667 2.63281 10.9115 2.53125 10.7031 2.32812C10.4948 2.11979 10.3906 1.86979 10.3906 1.57812C10.3906 1.28125 10.4948 1.03125 10.7031 0.828125C10.9115 0.619792 11.1667 0.515625 11.4688 0.515625C11.7708 0.515625 12.026 0.619792 12.2344 0.828125C12.4479 1.03125 12.5547 1.28125 12.5547 1.57812C12.5547 1.86979 12.4479 2.11979 12.2344 2.32812Z" fill="white"></path>
    <path d="M16.1016 7.17188L19.2188 3.71875H21.4609L18.1484 7.28125L21.6016 12H19.3516L16.7344 8.46094L16.0781 9.125V12H14.1328V0.726562H16.0781V7.17188H16.1016Z" fill="white"></path>
    <path d="M25.3672 10.6641C25.9245 10.6641 26.3932 10.5 26.7734 10.1719C27.1589 9.83854 27.3516 9.42448 27.3516 8.92969V8.29688L25.4375 8.41406C24.9688 8.44531 24.6042 8.5625 24.3438 8.76562C24.0885 8.96354 23.9609 9.22656 23.9609 9.55469C23.9609 9.89323 24.0885 10.1641 24.3438 10.3672C24.6042 10.5651 24.9453 10.6641 25.3672 10.6641ZM24.7812 12.1328C23.974 12.1328 23.3099 11.901 22.7891 11.4375C22.2734 10.974 22.0156 10.3724 22.0156 9.63281C22.0156 8.89844 22.2865 8.31771 22.8281 7.89062C23.375 7.46354 24.1536 7.21875 25.1641 7.15625L27.3516 7.03125V6.4375C27.3516 6.00521 27.2135 5.66927 26.9375 5.42969C26.6667 5.1901 26.2891 5.07031 25.8047 5.07031C25.3516 5.07031 24.9818 5.17188 24.6953 5.375C24.4089 5.57812 24.2344 5.85417 24.1719 6.20312H22.3672C22.4089 5.41667 22.7448 4.77865 23.375 4.28906C24.0104 3.79427 24.8464 3.54688 25.8828 3.54688C26.9089 3.54688 27.7292 3.79688 28.3438 4.29688C28.9635 4.79688 29.2734 5.46354 29.2734 6.29688V12H27.3984V10.6797H27.3594C27.125 11.1224 26.7708 11.4766 26.2969 11.7422C25.8229 12.0026 25.3177 12.1328 24.7812 12.1328Z" fill="white"></path>
    <path d="M33.9375 12.1328C32.8906 12.1328 32.0547 11.7474 31.4297 10.9766C30.8099 10.2057 30.5 9.16406 30.5 7.85156C30.5 6.54427 30.8099 5.50521 31.4297 4.73438C32.0547 3.96354 32.8906 3.57812 33.9375 3.57812C34.5208 3.57812 35.0365 3.71615 35.4844 3.99219C35.9375 4.26823 36.276 4.64062 36.5 5.10938H36.5469V0.726562H38.4922V12H36.5859V10.5859H36.5547C36.3255 11.0599 35.9792 11.4375 35.5156 11.7188C35.0573 11.9948 34.5312 12.1328 33.9375 12.1328ZM34.5234 5.17969C33.8984 5.17969 33.4036 5.42188 33.0391 5.90625C32.6745 6.38542 32.4922 7.03646 32.4922 7.85938C32.4922 8.6875 32.6719 9.34115 33.0312 9.82031C33.3958 10.2995 33.8932 10.5391 34.5234 10.5391C35.138 10.5391 35.6302 10.2969 36 9.8125C36.3698 9.32812 36.5547 8.67708 36.5547 7.85938C36.5547 7.04688 36.3698 6.39844 36 5.91406C35.6302 5.42448 35.138 5.17969 34.5234 5.17969Z" fill="white"></path>
    <path d="M47.4688 3.71875V12H45.5938V10.5625H45.5547C45.0964 11.6198 44.2526 12.1484 43.0234 12.1484C42.1224 12.1484 41.4062 11.875 40.875 11.3281C40.349 10.776 40.0859 10.0234 40.0859 9.07031V3.71875H42.0312V8.67969C42.0312 9.27344 42.1719 9.72656 42.4531 10.0391C42.7396 10.3516 43.1562 10.5078 43.7031 10.5078C44.2604 10.5078 44.7031 10.3255 45.0312 9.96094C45.3594 9.59635 45.5234 9.11198 45.5234 8.50781V3.71875H47.4688Z" fill="white"></path>
  </symbol>
   <symbol xmlns="http://www.w3.org/2000/svg" viewBox="0 0 14 14" id="Search">
    <path d="M13.2125 12.3516L9.15469 8.29375C9.78438 7.47969 10.125 6.48438 10.125 5.4375C10.125 4.18438 9.63594 3.00937 8.75156 2.12344C7.86719 1.2375 6.68906 0.75 5.4375 0.75C4.18594 0.75 3.00781 1.23906 2.12344 2.12344C1.2375 3.00781 0.75 4.18438 0.75 5.4375C0.75 6.68906 1.23906 7.86719 2.12344 8.75156C3.00781 9.6375 4.18438 10.125 5.4375 10.125C6.48438 10.125 7.47813 9.78438 8.29219 9.15625L12.35 13.2125C12.3619 13.2244 12.376 13.2338 12.3916 13.2403C12.4071 13.2467 12.4238 13.2501 12.4406 13.2501C12.4575 13.2501 12.4741 13.2467 12.4897 13.2403C12.5052 13.2338 12.5194 13.2244 12.5312 13.2125L13.2125 12.5328C13.2244 12.5209 13.2338 12.5068 13.2403 12.4912C13.2467 12.4757 13.2501 12.459 13.2501 12.4422C13.2501 12.4254 13.2467 12.4087 13.2403 12.3931C13.2338 12.3776 13.2244 12.3635 13.2125 12.3516ZM7.9125 7.9125C7.25 8.57344 6.37187 8.9375 5.4375 8.9375C4.50312 8.9375 3.625 8.57344 2.9625 7.9125C2.30156 7.25 1.9375 6.37187 1.9375 5.4375C1.9375 4.50312 2.30156 3.62344 2.9625 2.9625C3.625 2.30156 4.50312 1.9375 5.4375 1.9375C6.37187 1.9375 7.25156 2.3 7.9125 2.9625C8.57344 3.625 8.9375 4.50312 8.9375 5.4375C8.9375 6.37187 8.57344 7.25156 7.9125 7.9125Z"></path>
  </symbol>
  <symbol xmlns="http://www.w3.org/2000/svg" viewBox="0 0 24 24" id="likes">
    <path d="M20.7633 12.5094C21.157 11.9891 21.375 11.3516 21.375 10.6883C21.375 9.63596 20.7867 8.63987 19.8398 8.0844C19.5961 7.94142 19.3185 7.86617 19.0359 7.86643H13.4156L13.5563 4.98596C13.5891 4.28987 13.343 3.62893 12.8648 3.12502C12.6302 2.87665 12.3471 2.67904 12.0331 2.5444C11.7191 2.40975 11.3807 2.34094 11.0391 2.34221C9.82031 2.34221 8.74219 3.16252 8.41875 4.33674L6.40547 11.6258H3.375C2.96016 11.6258 2.625 11.961 2.625 12.3758V20.9071C2.625 21.3219 2.96016 21.6571 3.375 21.6571H17.468C17.6836 21.6571 17.8945 21.6149 18.0891 21.5305C19.2047 21.0547 19.9242 19.9649 19.9242 18.7555C19.9242 18.4602 19.882 18.1696 19.7977 17.8883C20.1914 17.368 20.4094 16.7305 20.4094 16.0672C20.4094 15.7719 20.3672 15.4813 20.2828 15.2C20.6766 14.6797 20.8945 14.0422 20.8945 13.3789C20.8898 13.0836 20.8477 12.7906 20.7633 12.5094ZM4.3125 19.9696V13.3133H6.21094V19.9696H4.3125ZM19.2281 11.6961L18.7148 12.1414L19.0406 12.7367C19.148 12.9328 19.2036 13.153 19.2023 13.3766C19.2023 13.7633 19.0336 14.1313 18.743 14.3844L18.2297 14.8297L18.5555 15.425C18.6628 15.6211 18.7185 15.8413 18.7172 16.0649C18.7172 16.4516 18.5484 16.8196 18.2578 17.0727L17.7445 17.518L18.0703 18.1133C18.1776 18.3094 18.2333 18.5296 18.232 18.7531C18.232 19.2781 17.9227 19.7516 17.4445 19.9672H7.71094V13.2383L10.043 4.78909C10.1031 4.57252 10.2322 4.38147 10.4107 4.24486C10.5891 4.10825 10.8073 4.03354 11.032 4.03205C11.2102 4.03205 11.3859 4.08362 11.5266 4.18909C11.7586 4.36252 11.8828 4.62502 11.8687 4.90393L11.6437 9.55393H19.0125C19.4297 9.8094 19.6875 10.2406 19.6875 10.6883C19.6875 11.075 19.5188 11.4406 19.2281 11.6961Z"></path>
  </symbol>
  <symbol xmlns="http://www.w3.org/2000/svg" viewBox="0 0 24 24" id="comments">
    <path d="M10.8752 12C10.8752 12.2984 10.9937 12.5845 11.2047 12.7955C11.4157 13.0065 11.7018 13.125 12.0002 13.125C12.2986 13.125 12.5847 13.0065 12.7957 12.7955C13.0067 12.5845 13.1252 12.2984 13.1252 12C13.1252 11.7016 13.0067 11.4155 12.7957 11.2045C12.5847 10.9935 12.2986 10.875 12.0002 10.875C11.7018 10.875 11.4157 10.9935 11.2047 11.2045C10.9937 11.4155 10.8752 11.7016 10.8752 12ZM15.5627 12C15.5627 12.2984 15.6812 12.5845 15.8922 12.7955C16.1032 13.0065 16.3893 13.125 16.6877 13.125C16.9861 13.125 17.2722 13.0065 17.4832 12.7955C17.6942 12.5845 17.8127 12.2984 17.8127 12C17.8127 11.7016 17.6942 11.4155 17.4832 11.2045C17.2722 10.9935 16.9861 10.875 16.6877 10.875C16.3893 10.875 16.1032 10.9935 15.8922 11.2045C15.6812 11.4155 15.5627 11.7016 15.5627 12ZM6.18769 12C6.18769 12.2984 6.30622 12.5845 6.5172 12.7955C6.72818 13.0065 7.01433 13.125 7.31269 13.125C7.61106 13.125 7.89721 13.0065 8.10819 12.7955C8.31917 12.5845 8.43769 12.2984 8.43769 12C8.43769 11.7016 8.31917 11.4155 8.10819 11.2045C7.89721 10.9935 7.61106 10.875 7.31269 10.875C7.01433 10.875 6.72818 10.9935 6.5172 11.2045C6.30622 11.4155 6.18769 11.7016 6.18769 12ZM21.6846 7.93125C21.1549 6.67266 20.3955 5.54297 19.4275 4.57266C18.4663 3.60796 17.3253 2.84114 16.0689 2.31563C14.7799 1.77422 13.4111 1.5 12.0002 1.5H11.9533C10.533 1.50703 9.15723 1.78828 7.86348 2.34141C6.61791 2.87232 5.48753 3.64049 4.53535 4.60312C3.57676 5.57109 2.82441 6.69609 2.3041 7.95C1.76504 9.24844 1.49316 10.6289 1.50019 12.0492C1.50815 13.6769 1.89322 15.2806 2.62519 16.7344V20.2969C2.62519 20.5828 2.73878 20.857 2.94097 21.0592C3.14316 21.2614 3.41738 21.375 3.70332 21.375H7.26816C8.72198 22.107 10.3257 22.492 11.9533 22.5H12.0025C13.4064 22.5 14.7682 22.2281 16.0502 21.6961C17.3002 21.1768 18.437 20.419 19.3971 19.4648C20.365 18.5063 21.1268 17.3859 21.6588 16.1367C22.2119 14.843 22.4932 13.4672 22.5002 12.0469C22.5072 10.6195 22.2307 9.23438 21.6846 7.93125ZM18.1432 18.1969C16.5002 19.8234 14.3205 20.7188 12.0002 20.7188H11.9604C10.5471 20.7117 9.14316 20.3602 7.90332 19.6992L7.70644 19.5938H4.40644V16.2938L4.30098 16.0969C3.64004 14.857 3.28848 13.4531 3.28144 12.0398C3.27207 9.70312 4.16504 7.50937 5.80332 5.85703C7.43926 4.20469 9.62598 3.29062 11.9627 3.28125H12.0025C13.1744 3.28125 14.3111 3.50859 15.3822 3.95859C16.4275 4.39687 17.365 5.02734 18.1713 5.83359C18.9752 6.6375 19.608 7.57734 20.0463 8.62266C20.501 9.70547 20.7283 10.8539 20.7236 12.0398C20.7096 14.3742 19.7932 16.5609 18.1432 18.1969Z"></path>
  </symbol>
  <symbol xmlns="http://www.w3.org/2000/svg" viewBox="0 0 24 24" id="save">
    <path d="M20.9367 6.87422L17.1258 3.06328C16.95 2.8875 16.7344 2.75859 16.5 2.68828V2.625H3.375C2.96016 2.625 2.625 2.96016 2.625 3.375V20.625C2.625 21.0398 2.96016 21.375 3.375 21.375H20.625C21.0398 21.375 21.375 21.0398 21.375 20.625V7.93359C21.375 7.53516 21.218 7.15547 20.9367 6.87422ZM9 4.3125H15V6.75H9V4.3125ZM19.6875 19.6875H4.3125V4.3125H7.5V7.5C7.5 7.91484 7.83516 8.25 8.25 8.25H15.75C16.1648 8.25 16.5 7.91484 16.5 7.5V4.82344L19.6875 8.01094V19.6875ZM12 10.3594C10.1367 10.3594 8.625 11.8711 8.625 13.7344C8.625 15.5977 10.1367 17.1094 12 17.1094C13.8633 17.1094 15.375 15.5977 15.375 13.7344C15.375 11.8711 13.8633 10.3594 12 10.3594ZM12 15.6094C10.9641 15.6094 10.125 14.7703 10.125 13.7344C10.125 12.6984 10.9641 11.8594 12 11.8594C13.0359 11.8594 13.875 12.6984 13.875 13.7344C13.875 14.7703 13.0359 15.6094 12 15.6094Z"></path>
  </symbol>
  <symbol xmlns="http://www.w3.org/2000/svg" viewBox="0 0 18 20" id="share">
    <path d="M14.625 13.5625C13.957 13.5625 13.3406 13.7969 12.8578 14.1883L8.00156 10.675C8.08288 10.2287 8.08288 9.77133 8.00156 9.325L12.8578 5.81172C13.3406 6.20312 13.957 6.4375 14.625 6.4375C16.1766 6.4375 17.4375 5.17656 17.4375 3.625C17.4375 2.07344 16.1766 0.8125 14.625 0.8125C13.0734 0.8125 11.8125 2.07344 11.8125 3.625C11.8125 3.89687 11.85 4.15703 11.9227 4.40547L7.31016 7.74531C6.62578 6.83828 5.53828 6.25 4.3125 6.25C2.24062 6.25 0.5625 7.92812 0.5625 10C0.5625 12.0719 2.24062 13.75 4.3125 13.75C5.53828 13.75 6.62578 13.1617 7.31016 12.2547L11.9227 15.5945C11.85 15.843 11.8125 16.1055 11.8125 16.375C11.8125 17.9266 13.0734 19.1875 14.625 19.1875C16.1766 19.1875 17.4375 17.9266 17.4375 16.375C17.4375 14.8234 16.1766 13.5625 14.625 13.5625ZM14.625 2.40625C15.2977 2.40625 15.8438 2.95234 15.8438 3.625C15.8438 4.29766 15.2977 4.84375 14.625 4.84375C13.9523 4.84375 13.4062 4.29766 13.4062 3.625C13.4062 2.95234 13.9523 2.40625 14.625 2.40625ZM4.3125 12.0625C3.17578 12.0625 2.25 11.1367 2.25 10C2.25 8.86328 3.17578 7.9375 4.3125 7.9375C5.44922 7.9375 6.375 8.86328 6.375 10C6.375 11.1367 5.44922 12.0625 4.3125 12.0625ZM14.625 17.5938C13.9523 17.5938 13.4062 17.0477 13.4062 16.375C13.4062 15.7023 13.9523 15.1562 14.625 15.1562C15.2977 15.1562 15.8438 15.7023 15.8438 16.375C15.8438 17.0477 15.2977 17.5938 14.625 17.5938Z"></path>
  </symbol>
  <symbol fill="none" xmlns="http://www.w3.org/2000/svg" viewBox="0 0 22 22" id="Off">
    <path d="M15.5371 1.92734C15.5084 1.91289 15.4765 1.90604 15.4444 1.90747C15.4123 1.90889 15.3811 1.91854 15.3538 1.93548C15.3265 1.95242 15.3041 1.97608 15.2885 2.00421C15.273 2.03233 15.265 2.06397 15.2652 2.09609V3.60078C15.2652 3.72969 15.3332 3.84922 15.441 3.91953C15.9695 4.2522 16.4586 4.64376 16.8988 5.08672C17.6652 5.85547 18.2676 6.74844 18.6871 7.74219C19.121 8.77093 19.3434 9.87648 19.341 10.993C19.341 12.1203 19.1207 13.2148 18.6871 14.2438C18.268 15.2361 17.6608 16.1378 16.8988 16.8992C16.1394 17.6631 15.2382 18.2713 14.2457 18.6898C13.2191 19.1258 12.1246 19.3461 10.9996 19.3461C9.8746 19.3461 8.78007 19.1258 7.7535 18.6898C6.76102 18.2713 5.85978 17.6631 5.10038 16.8992C4.33843 16.1378 3.73115 15.2361 3.3121 14.2438C2.87823 13.215 2.65584 12.1095 2.65819 10.993C2.65819 9.86563 2.8785 8.77109 3.3121 7.74219C3.73163 6.74844 4.33397 5.85547 5.10038 5.08672C5.54569 4.64141 6.03319 4.25234 6.55819 3.91953C6.66835 3.85156 6.73397 3.72969 6.73397 3.60078V2.09375C6.73397 1.95312 6.58632 1.86406 6.4621 1.925C3.18319 3.575 0.921473 6.95234 0.874598 10.8664C0.808973 16.4633 5.38632 21.1133 10.9808 21.125C16.5824 21.1367 21.1246 16.5945 21.1246 10.9906C21.1246 7.025 18.8512 3.59141 15.5371 1.92734ZM10.2496 12.125H11.7496C11.8527 12.125 11.9371 12.0406 11.9371 11.9375V1.0625C11.9371 0.959375 11.8527 0.875 11.7496 0.875H10.2496C10.1465 0.875 10.0621 0.959375 10.0621 1.0625V11.9375C10.0621 12.0406 10.1465 12.125 10.2496 12.125Z" fill="black"></path>
  </symbol>
  <symbol xmlns="http://www.w3.org/2000/svg" viewBox="0 0 16 16" id="fire">
    <path d="M13.0328 7.33147C12.7295 6.64875 12.2885 6.03597 11.7375 5.53147L11.2828 5.11428C11.2674 5.10051 11.2488 5.09073 11.2287 5.08581C11.2086 5.08089 11.1876 5.08099 11.1675 5.08608C11.1475 5.09117 11.129 5.1011 11.1137 5.11501C11.0984 5.12892 11.0867 5.14638 11.0797 5.16585L10.8766 5.74866C10.75 6.11428 10.5172 6.48772 10.1875 6.85491C10.1656 6.87835 10.1406 6.8846 10.1234 6.88616C10.1063 6.88772 10.0797 6.8846 10.0562 6.86272C10.0344 6.84397 10.0234 6.81585 10.025 6.78772C10.0828 5.8471 9.80156 4.78616 9.18594 3.63147C8.67656 2.6721 7.96875 1.92366 7.08437 1.40178L6.43906 1.0221C6.35469 0.972098 6.24688 1.03772 6.25156 1.13616L6.28594 1.88616C6.30937 2.39866 6.25 2.85179 6.10938 3.22835C5.9375 3.68929 5.69062 4.11741 5.375 4.50179C5.15535 4.76891 4.90639 5.01053 4.63281 5.2221C3.97391 5.72861 3.43815 6.37762 3.06562 7.12054C2.69402 7.86993 2.50045 8.695 2.5 9.53147C2.5 10.269 2.64531 10.983 2.93281 11.6565C3.21042 12.3049 3.61103 12.8933 4.1125 13.3893C4.61875 13.8893 5.20625 14.283 5.86094 14.5565C6.53906 14.8408 7.25781 14.9846 8 14.9846C8.74219 14.9846 9.46094 14.8408 10.1391 14.558C10.7921 14.2862 11.386 13.8898 11.8875 13.3908C12.3938 12.8908 12.7906 12.3065 13.0672 11.658C13.3543 10.9864 13.5015 10.2634 13.5 9.53303C13.5 8.77053 13.3438 8.02991 13.0328 7.33147ZM11.1406 12.633C10.3016 13.4643 9.1875 13.9205 8 13.9205C6.8125 13.9205 5.69844 13.4643 4.85938 12.633C4.02344 11.8033 3.5625 10.7033 3.5625 9.53303C3.5625 8.85335 3.71563 8.20179 4.01719 7.59554C4.31094 7.00335 4.74844 6.47366 5.27969 6.06585C5.6185 5.80678 5.9258 5.50891 6.19531 5.17835C6.58594 4.70179 6.89219 4.17053 7.10469 3.60022C7.19185 3.36497 7.25519 3.12156 7.29375 2.87366C7.67031 3.22054 7.98594 3.63928 8.25 4.12991C8.77187 5.10803 9.0125 5.97835 8.96562 6.71897C8.95443 6.8934 8.98291 7.06811 9.04895 7.22994C9.11498 7.39178 9.21684 7.53654 9.34688 7.65335C9.45956 7.75514 9.59135 7.83352 9.73458 7.88395C9.87782 7.93438 10.0296 7.95584 10.1812 7.9471C10.4891 7.93147 10.7719 7.79554 10.9781 7.56585C11.1859 7.33304 11.3656 7.09554 11.5156 6.85335C11.7344 7.13304 11.9172 7.43772 12.0625 7.76585C12.3109 8.32522 12.4375 8.92053 12.4375 9.53303C12.4375 10.7033 11.9766 11.8049 11.1406 12.633Z"></path>
  </symbol>
</svg>